<svg version="1.0" xmlns="http://www.w3.org/2000/svg"
 width="1280.000000pt" height="798.000000pt" viewBox="0 0 1280.000000 798.000000"
 preserveAspectRatio="xMidYMid meet">

<g transform="translate(0.000000,798.000000) scale(0.100000,-0.100000)"
fill="#000000" stroke="none">
<path d="M2639 7631 c-23 -8 -339 -259 -1792 -1426 -274 -220 -509 -407 -522
-415 -39 -24 -48 -60 -43 -167 5 -87 8 -99 29 -116 13 -10 65 -54 114 -97 264
-229 346 -300 400 -346 96 -82 309 -267 450 -389 72 -62 189 -163 260 -225 72
-62 155 -134 185 -160 30 -26 114 -99 186 -161 72 -63 191 -166 264 -229 74
-63 157 -135 185 -160 28 -25 94 -82 146 -126 52 -45 169 -146 260 -225 245
-213 456 -395 524 -453 33 -28 80 -69 105 -91 25 -23 92 -81 150 -130 58 -50
107 -92 110 -95 3 -3 36 -32 75 -65 119 -103 138 -119 185 -161 25 -22 95 -83
155 -135 61 -52 300 -258 530 -458 472 -408 682 -590 770 -665 32 -28 82 -71
110 -96 28 -25 145 -126 260 -225 115 -99 247 -214 294 -255 48 -42 115 -100
151 -130 36 -30 69 -61 73 -67 10 -17 44 -17 54 0 4 6 37 37 73 67 36 30 103
88 151 130 47 41 179 156 294 255 115 99 232 200 260 225 28 25 78 68 110 96
88 75 298 257 770 665 230 200 469 406 530 458 60 52 130 113 155 135 47 42
66 58 185 161 39 33 72 62 75 65 3 3 52 45 110 95 58 49 125 107 150 130 25
22 72 63 105 91 68 58 279 240 524 453 91 79 208 180 260 225 52 44 118 101
146 126 28 25 111 97 185 160 73 63 192 166 264 229 72 62 156 135 186 161 30
26 114 98 185 160 72 62 189 163 260 225 141 122 354 307 450 389 54 46 136
117 400 346 50 43 101 87 114 97 21 17 24 29 29 116 5 107 -4 143 -43 167 -13
8 -248 195 -522 415 -1480 1189 -1769 1418 -1797 1426 -38 11 -7241 10 -7277
0z m1131 -1991 c0 -5 -15 -10 -32 -9 -28 0 -30 2 -13 9 28 12 45 12 45 0z
m615 0 c-3 -5 -13 -10 -21 -10 -8 0 -14 5 -14 10 0 6 9 10 21 10 11 0 17 -4
14 -10z m3815 0 c0 -5 -4 -10 -9 -10 -6 0 -13 5 -16 10 -3 6 1 10 9 10 9 0 16
-4 16 -10z m647 -6 c-3 -3 -12 -4 -19 -1 -8 3 -5 6 6 6 11 1 17 -2 13 -5z
m-2900 -10 c-3 -3 -12 -4 -19 -1 -8 3 -5 6 6 6 11 1 17 -2 13 -5z m690 0 c-3
-3 -12 -4 -19 -1 -8 3 -5 6 6 6 11 1 17 -2 13 -5z m-3662 -1064 c16 -16 24
-30 19 -30 -6 0 -20 14 -32 30 -13 17 -21 30 -19 30 2 0 16 -13 32 -30z m6623
0 c-12 -16 -26 -30 -32 -30 -5 0 3 14 19 30 16 17 30 30 32 30 2 0 -6 -13 -19
-30z m-4558 -2935 c13 -14 21 -25 18 -25 -2 0 -15 11 -28 25 -13 14 -21 25
-18 25 2 0 15 -11 28 -25z m2510 22 c0 -2 -12 -14 -27 -28 l-28 -24 24 28 c23
25 31 32 31 24z"/>
</g>
</svg>
